<?xml version="1.0" encoding="utf-8"?>
<!-- Generator: Adobe Illustrator 24.0.1, SVG Export Plug-In . SVG Version: 6.00 Build 0)  -->
<svg version="1.1" xmlns="http://www.w3.org/2000/svg" xmlns:xlink="http://www.w3.org/1999/xlink" x="0px" y="0px"
	 viewBox="0 0 1975 441" enable-background="new 0 0 1975 441" xml:space="preserve">
<g id="Réteg_2">
	<rect x="-73" y="-57" display="none" fill="#3C3C3C" width="2117" height="768"/>
	<path fill="#3C3C3C" d="M537.38,269.23"/>
</g>
<g id="Réteg_1">
	<path fill="none" stroke="#74ADB5" stroke-width="50" stroke-linecap="round" stroke-linejoin="round" stroke-miterlimit="10" d="
		M31,415.5c97.85-127.95,195.71-255.89,293.56-383.84c11.87,15.14,129.1,159.25,191.71,172.77c12.12,2.62,872.06,5.89,1197.73,6.57
		h231"/>
	<g>
		<path fill="#7C7C7C" d="M258.83,404.06c-5.26,0-9.69-4.48-9.69-9.8V318.8c0-5.32,4.43-9.8,9.97-9.8c5.26,0,9.69,4.48,9.69,9.8
			v75.46C268.8,399.58,264.37,404.06,258.83,404.06z"/>
		<path fill="#74ADB5" d="M347.45,404.06c-4.85,0-8.72-3.92-8.72-8.82v-32.9c0-9.38-4.85-12.6-12.32-12.6
			c-6.92,0-12.32,3.92-15.23,7.98v37.52c0,4.9-3.88,8.82-8.86,8.82c-4.85,0-8.72-3.92-8.72-8.82v-51.8c0-4.76,3.88-8.68,9-8.68
			c4.71,0,8.59,3.92,8.59,8.68v0.98c4.29-5.18,12.46-10.5,23.4-10.5c14.68,0,21.74,8.4,21.74,21.56v39.76
			C356.32,400.14,352.44,404.06,347.45,404.06z"/>
		<path fill="#7C7C7C" d="M416.97,323.42c-2.08,0-3.32-0.98-6.37-0.98c-4.85,0-8.31,3.22-8.31,9.52v3.64h6.92
			c4.02,0,7.48,3.5,7.48,7.84c0,4.2-3.46,7.7-7.48,7.7h-6.92v44.1c0,4.9-3.88,8.82-9,8.82c-4.85,0-8.72-3.92-8.72-8.82v-44.1h-4.29
			c-4.15,0-7.62-3.5-7.62-7.98c0-4.06,3.46-7.56,7.62-7.56h4.29v-3.64c0-14.42,9.14-23.52,22.57-23.52c9.55,0,15.79,3.5,15.79,8.26
			C422.92,321.18,419.73,323.42,416.97,323.42z"/>
		<path fill="#7C7C7C" d="M463.91,404.9c-22.02,0-35.31-16.24-35.31-35.56c0-19.18,13.29-35.42,35.31-35.42
			c22.16,0,35.45,16.24,35.45,35.42C499.36,388.66,486.06,404.9,463.91,404.9z M463.91,349.74c-10.94,0-17.03,9.1-17.03,19.6
			c0,10.64,6.09,19.74,17.03,19.74c10.94,0,17.17-9.1,17.17-19.74C481.08,358.84,474.85,349.74,463.91,349.74z"/>
		<path fill="#7C7C7C" d="M550.59,351.42c-5.4,0.7-10.52,2.94-13.71,7.14v36.68c0,4.9-3.88,8.82-8.59,8.82h-0.28
			c-4.85,0-8.72-3.92-8.72-8.82v-51.8c0-4.76,3.88-8.68,9-8.68c4.71,0,8.59,3.92,8.59,8.68v1.4c3.32-4.48,7.75-9.8,14.4-9.8
			c5.12,0,7.75,3.22,7.75,7.28C559.04,347.64,555.44,350.72,550.59,351.42z"/>
		<path fill="#7C7C7C" d="M667.74,404.06c-4.85,0-8.72-3.92-8.72-8.82v-34.72c0-6.3-2.77-10.78-9.97-10.78
			c-6.23,0-11.35,4.2-13.85,7.84v37.66c0,4.9-3.88,8.82-9,8.82c-4.85,0-8.72-3.92-8.72-8.82v-34.72c0-6.3-2.77-10.78-9.97-10.78
			c-6.09,0-11.22,4.2-13.85,7.98v37.52c0,4.9-3.88,8.82-8.86,8.82c-4.85,0-8.72-3.92-8.72-8.82v-51.8c0-4.76,3.88-8.68,9-8.68
			c4.71,0,8.58,3.92,8.58,8.68v0.98c2.77-4.06,11.63-10.5,21.88-10.5c9.83,0,16.06,4.62,18.56,12.32
			c3.88-6.16,12.74-12.32,22.99-12.32c12.32,0,19.66,6.58,19.66,20.44v40.88C676.74,400.14,672.86,404.06,667.74,404.06z"/>
		<path fill="#7C7C7C" d="M750.13,404.06h-1.38c-1.38,0-7.62-1.12-7.62-7.84c-4.57,5.46-12.46,8.68-21.19,8.68
			c-10.66,0-23.26-7.28-23.26-22.4c0-15.82,12.6-21.84,23.26-21.84c8.86,0,16.76,2.94,21.19,8.26v-9.1
			c0-6.86-5.82-11.34-14.68-11.34c-5.26,0-10.39,1.26-14.96,4.34c-0.97,0.56-2.08,0.98-3.19,0.98c-3.18,0-6.65-2.66-6.65-6.86
			c0-1.26,0.42-2.52,0.97-3.5c4.15-6.72,19.11-9.52,26.86-9.52c15.23,0,29.22,6.16,29.22,25.62v35.7
			C758.71,400.14,754.83,404.06,750.13,404.06z M741.12,378.58c-2.91-3.92-8.45-5.88-14.12-5.88c-6.92,0-12.6,3.64-12.6,10.22
			c0,6.3,5.68,9.94,12.6,9.94c5.68,0,11.22-1.96,14.12-5.88V378.58z"/>
		<path fill="#7C7C7C" d="M805.51,404.9c-12.32,0-18.97-6.44-18.97-18.48v-35.28h-4.29c-4.15,0-7.62-3.5-7.62-7.98
			c0-4.06,3.46-7.56,7.62-7.56h4.29v-10.5c0-4.9,3.88-8.82,9-8.82c4.85,0,8.72,3.92,8.72,8.82v10.5h6.92c4.02,0,7.48,3.5,7.48,7.84
			c0,4.2-3.46,7.7-7.48,7.7h-6.92v30.52c0,5.32,3.32,7.42,6.09,7.42c0.42,0,1.11,0,1.52,0c4.99,0,7.75,3.36,7.75,7.7
			C819.64,401.26,817.01,404.9,805.51,404.9z"/>
		<path fill="#7C7C7C" d="M856.06,317.68c0,5.88-4.71,10.64-10.52,10.64c-5.68,0-10.52-4.76-10.52-10.64s4.85-10.5,10.52-10.5
			C851.35,307.18,856.06,311.8,856.06,317.68z M845.53,404.06c-4.85,0-8.72-3.92-8.72-8.82v-51.8c0-4.76,3.88-8.68,9-8.68
			c4.71,0,8.58,3.92,8.58,8.68v51.8C854.39,400.14,850.52,404.06,845.53,404.06z"/>
		<path fill="#7C7C7C" d="M933.18,429.82c-4.85,0-8.72-3.92-8.72-8.82v-26.46c-5.4,7-12.74,10.36-20.63,10.36
			c-17.17,0-29.63-13.02-29.63-35.56c0-22.54,12.46-35.42,29.63-35.42c8.17,0,15.51,3.64,20.63,10.22v-0.56c0-4.9,3.88-8.82,9-8.82
			c4.85,0,8.72,3.92,8.72,8.82V421C942.18,425.9,938.31,429.82,933.18,429.82z M924.46,357.44c-2.91-4.34-9.42-7.7-15.09-7.7
			c-9.97,0-16.89,7.98-16.89,19.6c0,11.76,6.92,19.74,16.89,19.74c5.68,0,12.19-3.5,15.09-7.7V357.44z"/>
		<path fill="#7C7C7C" d="M1020.28,404.06c-4.85,0-8.72-3.92-8.72-8.82v-0.56c-4.57,5.18-12.6,10.22-23.54,10.22
			c-14.68,0-21.6-8.12-21.6-21.28v-40.18c0-4.76,3.88-8.68,9-8.68c4.71,0,8.58,3.92,8.58,8.68v33.18c0,9.38,4.85,12.46,12.32,12.46
			c6.79,0,12.19-3.78,15.23-7.7v-37.94c0-4.76,3.88-8.68,9-8.68c4.71,0,8.58,3.92,8.58,8.68v51.8
			C1029.14,400.14,1025.27,404.06,1020.28,404.06z"/>
		<path fill="#7C7C7C" d="M1108.9,375.08h-41.27c1.11,8.54,7.89,15.68,19.25,15.68c3.74,0,8.86-1.12,13.02-3.36
			c1.11-0.56,2.35-0.84,3.46-0.84c3.74,0,7.48,2.94,7.48,7.14c0,7.98-17.03,11.2-25.89,11.2c-20.36,0-35.73-13.86-35.73-35.56
			c0-19.6,14.26-35.42,34.62-35.42c15.09,0,26.59,8.82,31.29,22.82c0.97,3.08,1.94,6.86,1.94,10.22
			C1117.07,371.3,1113.47,375.08,1108.9,375.08z M1083.84,348.06c-10.94,0-15.65,8.26-16.48,14.98h32.96
			C1099.9,356.6,1095.47,348.06,1083.84,348.06z"/>
		<path fill="#74ADB5" d="M1173.85,403.22h-25.34c-6.09,0-11.08-5.04-11.08-11.2v-70.98c0-6.16,4.98-11.2,11.08-11.2h25.34
			c28.94,0,49.02,18.62,49.02,46.76S1202.79,403.22,1173.85,403.22z M1173.85,327.34h-16.75v58.38h16.75
			c18.28,0,28.94-13.3,28.94-29.12C1202.79,340.08,1192.82,327.34,1173.85,327.34z"/>
		<path fill="#74ADB5" d="M1274.38,404.9c-22.02,0-35.31-16.24-35.31-35.56c0-19.18,13.29-35.42,35.31-35.42
			c22.16,0,35.45,16.24,35.45,35.42C1309.83,388.66,1296.53,404.9,1274.38,404.9z M1274.38,349.74c-10.94,0-17.03,9.1-17.03,19.6
			c0,10.64,6.09,19.74,17.03,19.74s17.17-9.1,17.17-19.74C1291.55,358.84,1285.32,349.74,1274.38,349.74z"/>
		<path fill="#74ADB5" d="M1421.43,404.06c-4.85,0-8.72-3.92-8.72-8.82v-34.72c0-6.3-2.77-10.78-9.97-10.78
			c-6.23,0-11.35,4.2-13.85,7.84v37.66c0,4.9-3.88,8.82-9,8.82c-4.85,0-8.72-3.92-8.72-8.82v-34.72c0-6.3-2.77-10.78-9.97-10.78
			c-6.09,0-11.22,4.2-13.85,7.98v37.52c0,4.9-3.88,8.82-8.86,8.82c-4.85,0-8.72-3.92-8.72-8.82v-51.8c0-4.76,3.88-8.68,9-8.68
			c4.71,0,8.58,3.92,8.58,8.68v0.98c2.77-4.06,11.63-10.5,21.88-10.5c9.83,0,16.06,4.62,18.56,12.32
			c3.88-6.16,12.74-12.32,22.99-12.32c12.32,0,19.66,6.58,19.66,20.44v40.88C1430.43,400.14,1426.56,404.06,1421.43,404.06z"/>
		<path fill="#74ADB5" d="M1510.05,375.08h-41.27c1.11,8.54,7.89,15.68,19.25,15.68c3.74,0,8.86-1.12,13.02-3.36
			c1.11-0.56,2.35-0.84,3.46-0.84c3.74,0,7.48,2.94,7.48,7.14c0,7.98-17.03,11.2-25.89,11.2c-20.36,0-35.73-13.86-35.73-35.56
			c0-19.6,14.26-35.42,34.62-35.42c15.09,0,26.59,8.82,31.29,22.82c0.97,3.08,1.94,6.86,1.94,10.22
			C1518.22,371.3,1514.62,375.08,1510.05,375.08z M1484.99,348.06c-10.94,0-15.65,8.26-16.48,14.98h32.96
			C1501.05,356.6,1496.62,348.06,1484.99,348.06z"/>
		<path fill="#74ADB5" d="M1562.26,404.9c-8.72,0-22.71-2.94-26.86-8.96c-0.83-1.12-1.25-2.38-1.25-3.78c0-4.2,3.6-7.42,7.34-7.42
			c1.25,0,2.49,0.28,3.6,0.98c5.26,3.08,12.19,5.46,18,5.46c7.62,0,11.22-3.08,11.22-7.28c0-11.2-39.74-2.1-39.74-28.7
			c0-11.34,9.83-21.28,27.42-21.28c8.72,0,20.63,2.8,24.37,8.26c0.69,0.98,1.11,2.24,1.11,3.5c0,3.78-3.32,6.72-6.92,6.72
			c-1.11,0-2.35-0.28-3.32-0.84c-4.29-2.52-9.69-4.06-15.09-4.06c-6.37,0-10.52,2.94-10.52,6.72c0,10.08,39.6,1.68,39.6,28.98
			C1591.2,395.52,1580.81,404.9,1562.26,404.9z"/>
		<path fill="#74ADB5" d="M1633.57,404.9c-12.32,0-18.97-6.44-18.97-18.48v-35.28h-4.29c-4.15,0-7.62-3.5-7.62-7.98
			c0-4.06,3.46-7.56,7.62-7.56h4.29v-10.5c0-4.9,3.88-8.82,9-8.82c4.85,0,8.72,3.92,8.72,8.82v10.5h6.92c4.02,0,7.48,3.5,7.48,7.84
			c0,4.2-3.46,7.7-7.48,7.7h-6.92v30.52c0,5.32,3.32,7.42,6.09,7.42c0.42,0,1.11,0,1.52,0c4.99,0,7.75,3.36,7.75,7.7
			C1647.69,401.26,1645.06,404.9,1633.57,404.9z"/>
		<path fill="#74ADB5" d="M1684.11,317.68c0,5.88-4.71,10.64-10.52,10.64c-5.68,0-10.52-4.76-10.52-10.64s4.85-10.5,10.52-10.5
			C1679.4,307.18,1684.11,311.8,1684.11,317.68z M1673.59,404.06c-4.85,0-8.72-3.92-8.72-8.82v-51.8c0-4.76,3.88-8.68,9-8.68
			c4.71,0,8.58,3.92,8.58,8.68v51.8C1682.45,400.14,1678.57,404.06,1673.59,404.06z"/>
		<path fill="#74ADB5" d="M1761.24,429.82c-4.85,0-8.72-3.92-8.72-8.82v-26.46c-5.4,7-12.74,10.36-20.63,10.36
			c-17.17,0-29.63-13.02-29.63-35.56c0-22.54,12.46-35.42,29.63-35.42c8.17,0,15.51,3.64,20.63,10.22v-0.56c0-4.9,3.88-8.82,9-8.82
			c4.85,0,8.72,3.92,8.72,8.82V421C1770.24,425.9,1766.36,429.82,1761.24,429.82z M1752.51,357.44c-2.91-4.34-9.42-7.7-15.09-7.7
			c-9.97,0-16.89,7.98-16.89,19.6c0,11.76,6.92,19.74,16.89,19.74c5.68,0,12.19-3.5,15.09-7.7V357.44z"/>
		<path fill="#74ADB5" d="M1848.34,404.06c-4.85,0-8.72-3.92-8.72-8.82v-0.56c-4.57,5.18-12.6,10.22-23.54,10.22
			c-14.68,0-21.6-8.12-21.6-21.28v-40.18c0-4.76,3.88-8.68,9-8.68c4.71,0,8.58,3.92,8.58,8.68v33.18c0,9.38,4.85,12.46,12.32,12.46
			c6.79,0,12.19-3.78,15.23-7.7v-37.94c0-4.76,3.88-8.68,9-8.68c4.71,0,8.58,3.92,8.58,8.68v51.8
			C1857.2,400.14,1853.32,404.06,1848.34,404.06z"/>
		<path fill="#74ADB5" d="M1936.96,375.08h-41.27c1.11,8.54,7.89,15.68,19.25,15.68c3.74,0,8.86-1.12,13.02-3.36
			c1.11-0.56,2.35-0.84,3.46-0.84c3.74,0,7.48,2.94,7.48,7.14c0,7.98-17.03,11.2-25.89,11.2c-20.36,0-35.73-13.86-35.73-35.56
			c0-19.6,14.26-35.42,34.62-35.42c15.09,0,26.59,8.82,31.29,22.82c0.97,3.08,1.94,6.86,1.94,10.22
			C1945.13,371.3,1941.53,375.08,1936.96,375.08z M1911.9,348.06c-10.94,0-15.65,8.26-16.48,14.98h32.96
			C1927.96,356.6,1923.53,348.06,1911.9,348.06z"/>
	</g>
	<path fill="none" stroke="#74ADB5" stroke-width="39" stroke-linecap="round" stroke-linejoin="round" stroke-miterlimit="10" d="
		M269.5,238.5"/>
	<path fill="#7C7C7C" d="M434,224"/>
	<path fill="#7C7C7C" d="M560.72,231.79"/>
	
		<ellipse transform="matrix(0.9455 -0.3256 0.3256 0.9455 -130.6932 386.0081)" display="none" fill="none" stroke="#74ADB5" stroke-width="15" stroke-linecap="round" stroke-linejoin="round" stroke-miterlimit="10" cx="1088" cy="583.5" rx="48.5" ry="101"/>
	<path display="none" fill="none" stroke="#74ADB5" stroke-width="7" stroke-miterlimit="10" d="M1033.5,583.5
		c15.33-5,30.67-10,46-15c17.67-7.67,35.33-15.33,53-23"/>
	<path display="none" fill="none" stroke="#74ADB5" stroke-width="7" stroke-miterlimit="10" d="M1057.22,492.37
		c4.91,10.92,9.83,23.32,14.28,37.13c4.24,13.19,7.38,25.58,9.72,36.87"/>
	<rect x="410" y="49" fill="#74ADB5" width="36" height="102"/>
	<circle fill="#74ADB5" cx="325" cy="194" r="30"/>
	<g>
	</g>
	<g>
	</g>
	<g display="none">
	</g>
	<g display="none">
	</g>
	<g>
	</g>
	<g>
	</g>
	<g>
	</g>
	<g>
	</g>
	<g>
	</g>
	<g>
	</g>
	<g>
	</g>
	<g>
	</g>
	<g>
	</g>
	<g>
	</g>
	<g>
	</g>
	<g>
	</g>
	<g>
	</g>
	<g>
	</g>
	<g>
	</g>
</g>
</svg>
